<svg aria-hidden="true" style="position: absolute; width: 0; height: 0; overflow: hidden;" version="1.1" xmlns="http://www.w3.org/2000/svg" xmlns:xlink="http://www.w3.org/1999/xlink">
<defs>
<symbol id="icon-instagram" viewBox="0 0 34 32">
<path d="M16.627 0.119c-4.312 0-4.853 0.019-6.547 0.094-1.692 0.077-2.846 0.346-3.857 0.74-1.101 0.421-2.039 1.044-2.811 1.83l-0.001 0.001c-0.809 0.792-1.434 1.752-1.833 2.812-0.39 1.011-0.659 2.165-0.738 3.859-0.075 1.692-0.094 2.231-0.094 6.545s0.019 4.855 0.094 6.549c0.077 1.69 0.346 2.846 0.74 3.855 0.399 1.060 1.022 2.020 1.832 2.814 0.774 0.787 1.712 1.41 2.759 1.813l0.053 0.018c1.011 0.392 2.165 0.659 3.857 0.738 1.694 0.075 2.234 0.094 6.547 0.094 4.314 0 4.855-0.019 6.549-0.094 1.69-0.077 2.846-0.346 3.855-0.74 1.101-0.421 2.040-1.044 2.813-1.83l0.001-0.001c0.808-0.792 1.432-1.752 1.832-2.812 0.392-1.009 0.661-2.165 0.738-3.855 0.077-1.694 0.094-2.234 0.094-6.549s-0.017-4.855-0.094-6.549c-0.075-1.69-0.346-2.844-0.738-3.855-0.421-1.101-1.045-2.040-1.832-2.813l-0.001-0.001c-0.774-0.787-1.712-1.41-2.759-1.813l-0.053-0.018c-1.009-0.39-2.165-0.659-3.857-0.738-1.694-0.075-2.232-0.094-6.547-0.094zM16.627 2.98c4.241 0 4.744 0.015 6.419 0.092 1.547 0.072 2.391 0.328 2.95 0.546 0.74 0.288 1.271 0.634 1.826 1.188 0.555 0.557 0.9 1.086 1.186 1.826 0.218 0.561 0.478 1.402 0.548 2.95 0.075 1.675 0.094 2.178 0.094 6.419s-0.019 4.744-0.094 6.419c-0.070 1.547-0.328 2.389-0.546 2.948-0.256 0.691-0.659 1.314-1.188 1.826-0.512 0.527-1.137 0.934-1.826 1.188-0.561 0.218-1.402 0.476-2.95 0.548-1.675 0.075-2.176 0.094-6.419 0.094-4.241 0-4.744-0.019-6.419-0.094-1.547-0.072-2.389-0.328-2.948-0.546-0.716-0.269-1.326-0.673-1.825-1.187l-0.001-0.001c-0.514-0.5-0.919-1.11-1.177-1.792l-0.011-0.034c-0.218-0.561-0.476-1.402-0.546-2.95-0.077-1.675-0.094-2.178-0.094-6.419s0.017-4.744 0.094-6.419c0.070-1.547 0.326-2.389 0.546-2.948 0.286-0.742 0.632-1.271 1.186-1.826 0.514-0.527 1.137-0.934 1.826-1.188 0.561-0.218 1.402-0.476 2.95-0.548 1.675-0.075 2.178-0.094 6.419-0.094z"></path>
<path d="M16.627 21.299c-2.926 0-5.299-2.372-5.299-5.299s2.372-5.299 5.299-5.299v0c2.926 0 5.299 2.372 5.299 5.299s-2.372 5.299-5.299 5.299v0zM16.627 7.836c-4.509 0-8.164 3.655-8.164 8.164s3.655 8.164 8.164 8.164v0c4.509 0 8.164-3.655 8.164-8.164s-3.655-8.164-8.164-8.164v0zM27.166 7.688c0 1.066-0.864 1.929-1.929 1.929s-1.929-0.864-1.929-1.929v0c0-1.066 0.864-1.929 1.929-1.929s1.929 0.864 1.929 1.929v0z"></path>
</symbol>
<symbol id="icon-Logo" viewBox="0 0 126 32">
<path fill="#fff" style="fill: var(--color1, #fff)" d="M43.311 1.718c0.524 0 0.967 0.016 1.33 0.048 0.374 0.021 0.716 0.059 1.026 0.112s0.63 0.128 0.961 0.225l-0.192 1.798c-0.224-0.016-0.564-0.033-0.904-0.046l-0.073-0.002c-0.27-0.010-0.588-0.016-0.907-0.016-0.014 0-0.027 0-0.041 0h0.002c-0.331-0.011-0.732-0.016-1.202-0.016-0.545 0-0.972 0.107-1.282 0.321-0.299 0.214-0.513 0.589-0.641 1.124-0.128 0.524-0.192 1.252-0.192 2.183s0.064 1.664 0.192 2.199c0.128 0.524 0.342 0.894 0.641 1.108 0.31 0.214 0.737 0.321 1.282 0.321 0.737 0 1.357-0.011 1.859-0.032 0.568-0.024 1.083-0.065 1.593-0.122l-0.103 0.009 0.208 1.798c-0.449 0.147-0.981 0.265-1.528 0.333l-0.042 0.004c-0.534 0.075-1.197 0.112-1.987 0.112-1.143 0-2.062-0.182-2.756-0.546-0.684-0.375-1.181-0.979-1.49-1.814-0.299-0.835-0.449-1.959-0.449-3.371s0.15-2.537 0.449-3.371c0.31-0.835 0.807-1.434 1.49-1.798 0.694-0.375 1.613-0.562 2.756-0.562zM50.12 5.057l0.288 1.573 0.225 0.209v6.149h-2.372v-7.931h1.859zM53.982 4.849l-0.224 2.199h-0.657c-0.374 0-0.764 0.053-1.17 0.161s-0.919 0.267-1.539 0.481l-0.16-1.332c0.555-0.492 1.116-0.867 1.683-1.124s1.116-0.385 1.651-0.385h0.417zM58.725 4.849c1.336 0 2.292 0.23 2.869 0.69 0.588 0.45 0.881 1.124 0.881 2.023 0.011 0.727-0.171 1.273-0.545 1.637-0.374 0.353-1.020 0.53-1.939 0.53h-4.423v-1.333h3.766c0.363 0 0.593-0.075 0.689-0.225 0.107-0.16 0.16-0.38 0.16-0.658-0.011-0.375-0.123-0.632-0.336-0.771-0.203-0.15-0.55-0.225-1.042-0.225-0.438 0-0.78 0.059-1.026 0.177s-0.417 0.342-0.513 0.674c-0.096 0.332-0.144 0.813-0.144 1.445 0 0.663 0.059 1.177 0.176 1.541 0.118 0.353 0.315 0.599 0.593 0.739 0.289 0.139 0.684 0.209 1.186 0.209 0.363 0 0.812-0.011 1.346-0.032 0.545-0.032 1.090-0.080 1.635-0.144l0.224 1.461c-0.31 0.15-0.662 0.267-1.058 0.353-0.346 0.079-0.762 0.141-1.187 0.174l-0.031 0.002c-0.417 0.043-0.817 0.064-1.202 0.064-1.004 0-1.816-0.145-2.436-0.433-0.609-0.3-1.052-0.755-1.33-1.365-0.267-0.61-0.401-1.392-0.401-2.344 0-1.038 0.139-1.862 0.417-2.472s0.716-1.049 1.314-1.317c0.598-0.267 1.383-0.401 2.356-0.401zM68.204 4.849c0.662 0 1.223 0.091 1.683 0.273 0.459 0.171 0.807 0.471 1.042 0.899 0.246 0.417 0.369 0.995 0.369 1.734v5.233h-1.891l-0.337-1.718-0.16-0.241v-3.291c0-0.375-0.091-0.648-0.272-0.819-0.171-0.171-0.502-0.257-0.994-0.257-0.406 0-0.913 0.016-1.522 0.048-0.609 0.021-1.234 0.053-1.875 0.096l-0.224-1.573c0.348-0.071 0.802-0.139 1.262-0.187l0.068-0.006c0.357-0.042 0.876-0.088 1.399-0.123l0.107-0.006c0.4-0.038 0.868-0.062 1.341-0.064l0.005-0zM70.319 8.108l-0.016 1.332-3.526 0.016c-0.288 0-0.497 0.070-0.625 0.209-0.118 0.139-0.176 0.327-0.176 0.562v0.385c0 0.267 0.075 0.476 0.224 0.626 0.15 0.139 0.39 0.209 0.721 0.209 0.278 0 0.577-0.059 0.897-0.177 0.331-0.118 0.657-0.283 0.978-0.498 0.324-0.217 0.603-0.466 0.845-0.749l0.005-0.006v1.027c-0.096 0.161-0.24 0.364-0.433 0.61-0.182 0.236-0.417 0.471-0.705 0.707-0.288 0.225-0.625 0.417-1.010 0.578s-0.823 0.241-1.314 0.241c-0.481 0-0.913-0.085-1.298-0.257s-0.689-0.423-0.914-0.755c-0.224-0.332-0.336-0.744-0.336-1.236v-0.819c0-0.632 0.214-1.124 0.641-1.477s1.015-0.53 1.763-0.53h4.279zM76.254 2.858v7.593c0 0.289 0.064 0.498 0.192 0.626 0.139 0.118 0.363 0.177 0.673 0.177h1.026l0.256 1.605c-0.192 0.064-0.427 0.118-0.705 0.161-0.278 0.053-0.556 0.091-0.833 0.112-0.278 0.032-0.513 0.048-0.705 0.048-0.716 0-1.277-0.193-1.683-0.578-0.395-0.385-0.593-0.926-0.593-1.621l-0.016-8.123h2.388zM78.465 5.057v1.557h-5.978v-1.477l1.538-0.080h4.439zM82.154 5.057v7.931h-2.356v-7.931h2.356zM81.497 1.557c0.47 0 0.705 0.241 0.705 0.723v0.851c0 0.481-0.235 0.722-0.705 0.722h-1.026c-0.47 0-0.705-0.241-0.705-0.722v-0.851c0-0.482 0.235-0.722 0.705-0.722h1.026zM92.144 5.057l-2.612 7.369c-0.062 0.17-0.167 0.311-0.302 0.416l-0.002 0.002c-0.128 0.097-0.283 0.145-0.465 0.145h-2.067c-0.004 0-0.009 0-0.014 0-0.174 0-0.336-0.054-0.469-0.147l0.003 0.002c-0.129-0.11-0.228-0.25-0.286-0.411l-0.002-0.007-2.612-7.369h2.516l1.458 4.961c0.064 0.235 0.123 0.476 0.176 0.722s0.107 0.482 0.16 0.707h0.208c0.064-0.236 0.123-0.471 0.176-0.707 0.064-0.246 0.128-0.487 0.192-0.722l1.426-4.961h2.516zM96.849 4.849c1.335 0 2.292 0.23 2.869 0.69 0.587 0.45 0.881 1.124 0.881 2.023 0.011 0.727-0.171 1.273-0.545 1.637-0.374 0.353-1.020 0.53-1.939 0.53h-4.423v-1.333h3.766c0.363 0 0.593-0.075 0.689-0.225 0.107-0.16 0.16-0.38 0.16-0.658-0.011-0.375-0.123-0.632-0.337-0.771-0.203-0.15-0.55-0.225-1.042-0.225-0.438 0-0.78 0.059-1.026 0.177s-0.417 0.342-0.513 0.674c-0.096 0.332-0.144 0.813-0.144 1.445 0 0.663 0.059 1.177 0.176 1.541 0.117 0.353 0.315 0.599 0.593 0.739 0.288 0.139 0.684 0.209 1.186 0.209 0.363 0 0.812-0.011 1.346-0.032 0.647-0.038 1.211-0.090 1.77-0.158l-0.135 0.013 0.224 1.461c-0.31 0.15-0.662 0.267-1.058 0.353-0.346 0.079-0.762 0.141-1.187 0.174l-0.031 0.002c-0.417 0.043-0.817 0.064-1.202 0.064-1.004 0-1.816-0.145-2.436-0.433-0.609-0.3-1.052-0.755-1.33-1.365-0.267-0.61-0.401-1.392-0.401-2.344 0-1.038 0.139-1.862 0.417-2.472s0.716-1.049 1.314-1.317c0.598-0.267 1.384-0.401 2.356-0.401zM42.638 17.264c0.545 0 1.138 0.032 1.779 0.097 0.641 0.053 1.266 0.171 1.875 0.353l-0.16 1.621c-0.47-0.011-1.020-0.021-1.651-0.032-0.551-0.010-1.204-0.016-1.857-0.016h-0.002c-0.299 0-0.556 0.011-0.769 0.032-0.203 0.011-0.369 0.053-0.497 0.128-0.126 0.063-0.223 0.171-0.271 0.301l-0.001 0.004c-0.053 0.139-0.080 0.332-0.080 0.578 0 0.375 0.085 0.647 0.256 0.819 0.182 0.171 0.486 0.327 0.914 0.466l2.131 0.69c0.887 0.3 1.501 0.707 1.843 1.22s0.513 1.188 0.513 2.023c0 0.632-0.075 1.156-0.224 1.573s-0.384 0.744-0.705 0.979c-0.321 0.235-0.743 0.401-1.266 0.498-0.524 0.107-1.165 0.16-1.923 0.16-0.363 0-0.882-0.027-1.555-0.080-0.673-0.043-1.442-0.161-2.308-0.353l0.16-1.734c0.63 0.011 1.175 0.027 1.634 0.048 0.47 0.011 0.871 0.021 1.202 0.032h0.866c0.427 0 0.758-0.027 0.993-0.080 0.246-0.053 0.417-0.161 0.513-0.321s0.144-0.39 0.144-0.69c0-0.257-0.038-0.46-0.112-0.61-0.065-0.162-0.184-0.29-0.333-0.367l-0.004-0.002c-0.149-0.097-0.358-0.182-0.625-0.257l-2.244-0.771c-0.844-0.31-1.442-0.717-1.795-1.22s-0.529-1.167-0.529-1.991c0-0.642 0.075-1.161 0.224-1.557 0.16-0.407 0.401-0.723 0.721-0.947 0.331-0.225 0.753-0.38 1.266-0.466 0.523-0.085 1.148-0.128 1.875-0.128zM50.65 20.62v7.93h-2.356v-7.93h2.356zM49.993 17.12c0.47 0 0.705 0.241 0.705 0.723v0.851c0 0.481-0.235 0.722-0.705 0.722h-1.026c-0.47 0-0.705-0.241-0.705-0.722v-0.851c0-0.482 0.235-0.722 0.705-0.722h1.026zM56.184 20.411c0.919 0 1.645 0.086 2.18 0.257 0.545 0.171 0.935 0.439 1.17 0.803 0.246 0.364 0.368 0.851 0.368 1.461 0 0.589-0.117 1.070-0.352 1.445-0.235 0.364-0.63 0.631-1.186 0.803-0.545 0.171-1.277 0.257-2.196 0.257s-1.656-0.086-2.211-0.257c-0.545-0.171-0.94-0.439-1.186-0.803-0.235-0.364-0.353-0.845-0.353-1.445s0.118-1.081 0.353-1.445c0.246-0.375 0.646-0.648 1.202-0.819s1.293-0.257 2.211-0.257zM56.168 21.872c-0.588 0-0.994 0.080-1.218 0.241-0.224 0.15-0.336 0.423-0.336 0.819s0.112 0.674 0.336 0.835c0.224 0.161 0.63 0.241 1.218 0.241s0.988-0.080 1.202-0.241c0.214-0.16 0.321-0.439 0.321-0.835s-0.107-0.669-0.321-0.819c-0.214-0.161-0.614-0.241-1.202-0.241zM60.816 20.62l-0.128 1.011-2.115 0.273-0.577-1.284h2.821zM53.781 24.954l1.186 0.209c-0.149 0.086-0.256 0.22-0.32 0.401-0.053 0.182-0.037 0.353 0.048 0.514s0.272 0.257 0.561 0.289l2.917 0.337c0.833 0.086 1.421 0.321 1.763 0.707 0.342 0.375 0.513 0.926 0.513 1.653 0 0.685-0.139 1.21-0.417 1.573-0.278 0.375-0.721 0.632-1.33 0.771s-1.421 0.209-2.436 0.209c-0.833 0-1.523-0.043-2.067-0.128-0.534-0.075-0.962-0.203-1.282-0.385-0.31-0.182-0.529-0.423-0.657-0.722-0.117-0.289-0.176-0.653-0.176-1.092 0-0.332 0.059-0.615 0.176-0.851 0.118-0.246 0.315-0.465 0.593-0.658 0.289-0.193 0.689-0.369 1.202-0.53l1.17-0.417 0.849 0.337-0.641 0.418c-0.262 0.187-0.476 0.35-0.685 0.519l0.028-0.022c-0.16 0.128-0.278 0.257-0.352 0.385-0.064 0.128-0.096 0.3-0.096 0.513 0 0.247 0.054 0.434 0.16 0.562 0.107 0.139 0.299 0.23 0.577 0.273 0.288 0.053 0.678 0.080 1.17 0.080 0.513 0 0.913-0.027 1.202-0.080 0.289-0.043 0.486-0.129 0.593-0.257 0.118-0.128 0.176-0.31 0.176-0.546 0-0.203-0.043-0.353-0.128-0.449-0.075-0.097-0.209-0.166-0.401-0.209-0.182-0.054-0.438-0.102-0.769-0.145l-2.484-0.273c-0.417-0.043-0.743-0.155-0.978-0.337s-0.401-0.401-0.497-0.658c-0.054-0.16-0.085-0.343-0.085-0.534 0-0.095 0.008-0.188 0.022-0.278l-0.001 0.010c0.043-0.274 0.145-0.518 0.292-0.728l-0.004 0.005c0.154-0.207 0.36-0.368 0.6-0.462l0.009-0.003zM67.484 20.411c1.496 0 2.244 0.733 2.244 2.199v5.94h-2.388v-5.202c0-0.353-0.064-0.594-0.192-0.722-0.117-0.139-0.331-0.209-0.641-0.209-0.342 0-0.694 0.064-1.058 0.193s-0.812 0.337-1.346 0.626l-0.208-1.236c0.588-0.514 1.186-0.904 1.795-1.172 0.609-0.278 1.207-0.417 1.795-0.417zM64.343 17.313l0.016 2.745c0 0.417-0.027 0.813-0.080 1.188-0.043 0.375-0.096 0.69-0.16 0.947l0.225 0.209v6.148h-2.372v-11.237h2.372zM74.689 18.42v7.593c0 0.289 0.064 0.498 0.192 0.627 0.139 0.117 0.363 0.176 0.673 0.176h1.026l0.256 1.605c-0.192 0.064-0.427 0.118-0.705 0.161-0.278 0.053-0.556 0.091-0.833 0.112-0.278 0.032-0.513 0.048-0.705 0.048-0.716 0-1.277-0.193-1.683-0.578-0.395-0.385-0.593-0.926-0.593-1.622l-0.016-8.123h2.388zM76.9 20.62v1.557h-5.978v-1.477l1.538-0.080h4.439zM86.339 17.248c0.481 0 0.919 0.016 1.314 0.048s0.769 0.075 1.122 0.128c0.363 0.053 0.716 0.134 1.058 0.241l-0.192 1.782c-0.266-0.017-0.646-0.034-1.026-0.046l-0.063-0.002c-0.315-0.010-0.685-0.016-1.057-0.016h-0.001c-0.322-0.010-0.701-0.016-1.081-0.016-0.009 0-0.017 0-0.026 0h0.001c-0.459 0-0.844 0.048-1.154 0.145-0.299 0.096-0.54 0.278-0.721 0.546-0.182 0.257-0.315 0.632-0.401 1.124-0.075 0.482-0.112 1.103-0.112 1.862 0 0.92 0.059 1.643 0.176 2.167s0.315 0.899 0.593 1.124c0.278 0.214 0.652 0.321 1.122 0.321 0.321 0 0.614-0.032 0.881-0.096 0.282-0.067 0.527-0.155 0.76-0.266l-0.022 0.010c0.363-0.186 0.567-0.298 0.771-0.412l-0.146 0.075 0.256 1.156c-0.16 0.225-0.401 0.466-0.721 0.722-0.31 0.257-0.689 0.477-1.138 0.658s-0.961 0.273-1.538 0.273c-0.833 0-1.517-0.198-2.051-0.594-0.524-0.396-0.908-1.017-1.154-1.862-0.246-0.856-0.369-1.964-0.369-3.323 0-1.445 0.155-2.584 0.465-3.419 0.32-0.835 0.839-1.429 1.554-1.782 0.727-0.364 1.693-0.546 2.901-0.546zM90.217 22.161v6.389h-1.811l-0.336-1.685-0.224-0.45v-4.254h2.372zM93.878 20.62l0.288 1.573 0.224 0.209v6.148h-2.372v-7.93h1.859zM97.741 20.411l-0.225 2.199h-0.657c-0.374 0-0.764 0.053-1.17 0.16s-0.919 0.268-1.539 0.482l-0.16-1.332c0.556-0.492 1.117-0.867 1.683-1.124s1.116-0.385 1.651-0.385h0.417zM102.499 20.411c0.994 0 1.79 0.139 2.388 0.417 0.598 0.268 1.026 0.706 1.282 1.317 0.267 0.61 0.401 1.428 0.401 2.456 0 1.006-0.134 1.814-0.401 2.424-0.256 0.61-0.684 1.049-1.282 1.317s-1.394 0.401-2.388 0.401c-0.983 0-1.779-0.134-2.388-0.401-0.598-0.267-1.031-0.706-1.298-1.316s-0.401-1.418-0.401-2.424c0-1.028 0.134-1.846 0.401-2.456s0.7-1.049 1.298-1.317c0.609-0.278 1.405-0.417 2.388-0.417zM102.499 22.145c-0.406 0-0.727 0.070-0.962 0.209s-0.401 0.385-0.497 0.739c-0.096 0.353-0.144 0.856-0.144 1.509 0 0.642 0.048 1.14 0.144 1.493s0.262 0.599 0.497 0.738c0.235 0.128 0.556 0.193 0.962 0.193s0.727-0.064 0.962-0.193c0.235-0.139 0.401-0.385 0.497-0.738s0.144-0.851 0.144-1.493c0-0.653-0.048-1.156-0.144-1.509s-0.262-0.599-0.497-0.739c-0.235-0.139-0.556-0.209-0.962-0.209zM110.51 20.62v5.217c0 0.332 0.070 0.567 0.208 0.707 0.15 0.139 0.385 0.208 0.705 0.208 0.331 0 0.657-0.059 0.978-0.177 0.331-0.128 0.737-0.326 1.218-0.594l0.192 1.3c-0.577 0.503-1.143 0.878-1.699 1.124-0.504 0.233-1.093 0.368-1.714 0.369h-0c-1.506 0-2.26-0.739-2.26-2.216v-5.94h2.372zM115.75 20.62v7.93h-1.875l-0.273-1.557-0.224-0.225v-6.149h2.372zM122.894 20.427c0.993 0 1.704 0.364 2.131 1.092s0.641 1.771 0.641 3.13c0 1.060-0.112 1.889-0.337 2.488-0.214 0.599-0.545 1.022-0.993 1.268-0.438 0.235-0.988 0.353-1.651 0.353-0.566 0-1.106-0.080-1.619-0.241-0.532-0.169-0.988-0.444-1.364-0.804l0.001 0.001 0.16-1.060c0.353 0.107 0.673 0.203 0.962 0.289 0.299 0.075 0.636 0.112 1.009 0.112 0.342 0 0.614-0.059 0.817-0.177s0.347-0.348 0.433-0.69c0.096-0.353 0.144-0.862 0.144-1.525 0-0.653-0.043-1.15-0.128-1.493-0.086-0.353-0.225-0.594-0.417-0.722-0.192-0.139-0.444-0.209-0.753-0.209-0.342 0-0.657 0.070-0.946 0.209-0.288 0.128-0.614 0.316-0.977 0.562l-0.305-1.092c0.214-0.289 0.486-0.546 0.817-0.771 0.323-0.214 0.694-0.394 1.090-0.521l0.032-0.009c0.372-0.122 0.8-0.192 1.244-0.192 0.002 0 0.004 0 0.006 0h-0zM119.609 20.62l0.224 1.445 0.224 0.241v5.153l-0.080 0.192c0.032 0.321 0.054 0.653 0.064 0.995 0.021 0.353 0.027 0.701 0.016 1.043v1.911h-2.372v-10.981h1.923zM9.573 21.173c0.155 2.613 0.155 5.834 0 9.629-3.107-1.431-5.499-3.407-7.162-5.942-1.848-2.863-2.626-6.223-2.361-10.112 0.202-3.018 1.227-5.724 3.091-8.135 1.647-2.131 3.729-3.811 6.292-5.056 0.015 0.016 0.031 0.047 0.062 0.062 0.047 0.016 0.062 0.031 0.078 0.031 0.171 3.173 0.171 6.347 0 9.536-1.336 0.249-2.314 0.327-2.936 0.171-0.171-0.28-0.249-0.84-0.171-1.664 0.063-0.855 0.031-1.385-0.078-1.634-0.513 0.171-1.072 0.793-1.693 1.898-1.429 2.505-1.895 5.476-1.351 8.929 0.341 2.38 1.336 4.262 2.951 5.678 0.186-0.249 0.264-0.747 0.202-1.509-0.047-0.98-0.062-1.602-0.031-1.883 0.467-0.082 1.005-0.128 1.553-0.128s1.086 0.047 1.609 0.136l-0.056-0.008 0.001 0.001zM20.913 14.546c0.067 2.478 0.105 5.396 0.105 8.323s-0.038 5.844-0.114 8.752l0.009-0.429c-1.305 0.544-2.874 0.793-4.723 0.809-1.88 0-3.433-0.249-4.66-0.809-0.218-2.194-0.233-5.601-0.078-10.22 0.575-0.264 1.585-0.296 3.029-0.094 0.062 0.14 0.062 1.603 0 4.387-0.047 2.116-0.016 3.282 0.093 3.485 0.187 0.311 0.637 0.482 1.383 0.467 0.621 0 1.165-0.094 1.662-0.296 0.264-3.407 0.311-7.14 0.14-11.153-0.606-0.187-1.615-0.218-3.060-0.187-1.554 0.031-2.61 0-3.169-0.078-0.155-8.572-0.186-14.187-0.078-16.832 1.243-0.467 2.828-0.685 4.723-0.669 1.817 0.016 3.386 0.249 4.738 0.669 0.14 3.485 0.14 6.953 0 10.392-0.979 0.187-1.973 0.187-2.967 0-0.078-0.949-0.109-2.24-0.109-3.873 0.016-2.209 0.031-3.531 0.031-3.982-0.295-0.249-0.808-0.405-1.523-0.42s-1.274 0.047-1.693 0.233c-0.093 1.229-0.124 3.080-0.108 5.507 0.016 3.189 0.031 5.041 0.031 5.585 0.341 0.156 1.756 0.249 4.225 0.342l2.113 0.093zM26.304 28.702c-1.444 1.12-2.61 1.804-3.557 2.007v-28.686c0-0.125 0.078-0.218 0.171-0.264 4.257 1.852 7.068 5.025 8.436 9.536-1.336 0.14-2.314 0.187-2.936 0.093-0.233-0.202-0.559-0.793-1.025-1.742-0.357-0.762-0.777-1.26-1.258-1.478-0.295 3.936-0.342 9.396-0.186 16.396 0.59-0.264 1.258-1.198 2.035-2.8 0.668-1.384 1.041-2.598 1.072-3.609-0.016-0.187-0.218-0.28-0.59-0.28-0.482 0-0.746-0.016-0.808-0.062-0.082-0.444-0.128-0.956-0.128-1.478s0.047-1.033 0.136-1.53l-0.008 0.052c0.678-0.074 1.464-0.117 2.26-0.117s1.582 0.042 2.357 0.125l-0.096-0.008c0.388 5.771-1.569 10.376-5.872 13.845h-0.001z"></path>
</symbol>
<symbol id="icon-Telegram" viewBox="0 0 39 32">
<path d="M2.688 13.776c10.5-4.516 17.5-7.493 21.003-8.932 10.002-4.107 12.080-4.821 13.435-4.844 0.299-0.005 0.964 0.068 1.396 0.414 0.364 0.292 0.464 0.686 0.512 0.962 0.048 0.277 0.107 0.907 0.060 1.401-0.542 5.621-2.887 19.266-4.080 25.563-0.505 2.663-1.499 3.556-2.46 3.644-2.092 0.19-3.68-1.364-5.707-2.676-3.168-2.052-4.96-3.328-8.036-5.33-3.556-2.313-1.252-3.584 0.775-5.662 0.53-0.544 9.746-8.818 9.924-9.57 0.021-0.094 0.043-0.444-0.167-0.629-0.212-0.185-0.523-0.121-0.747-0.071-0.318 0.071-5.381 3.376-15.191 9.913-1.436 0.974-2.738 1.449-3.906 1.424-1.285-0.027-3.758-0.716-5.598-1.307-2.254-0.725-4.046-1.108-3.892-2.336 0.082-0.64 0.974-1.296 2.679-1.964z"></path>
</symbol>
<symbol id="icon-whatsapp" viewBox="0 0 34 32">
<path d="M17.321 0.631c-8.717 0-15.812 6.833-15.816 15.232 0 0.002 0 0.005 0 0.007 0 2.81 0.785 5.436 2.147 7.672l-0.037-0.065-2.242 7.893 8.386-2.118c2.19 1.169 4.79 1.856 7.55 1.856 0.003 0 0.005 0 0.008 0h0.005c8.717 0 15.812-6.835 15.816-15.234 0.002-4.068-1.641-7.896-4.629-10.775-2.985-2.88-6.957-4.469-11.189-4.469zM17.321 28.535h-0.006c-0.005 0-0.010 0-0.015 0-2.455 0-4.756-0.655-6.74-1.8l0.065 0.035-0.482-0.275-4.975 1.257 1.329-4.674-0.312-0.478c-1.26-1.897-2.010-4.227-2.010-6.733 0-0.002 0-0.004 0-0.007v0c0.004-6.98 5.901-12.657 13.152-12.657 3.511 0 6.81 1.318 9.293 3.712 2.483 2.391 3.849 5.574 3.848 8.958-0.004 6.98-5.901 12.661-13.148 12.661h0.002zM24.531 19.051c-0.395-0.19-2.338-1.111-2.699-1.24-0.361-0.124-0.625-0.19-0.888 0.19-0.264 0.382-1.020 1.239-1.25 1.493-0.232 0.254-0.463 0.284-0.858 0.094-0.395-0.188-1.67-0.591-3.177-1.888-0.85-0.757-1.579-1.625-2.17-2.587l-0.029-0.050c-0.232-0.38-0.024-0.585 0.173-0.776 0.177-0.169 0.395-0.444 0.591-0.666 0.198-0.222 0.264-0.38 0.395-0.634s0.066-0.478-0.032-0.666c-0.1-0.192-0.888-2.065-1.22-2.827-0.32-0.742-0.646-0.64-0.888-0.653-0.218-0.010-0.473-0.015-0.73-0.015-0.010 0-0.020 0-0.031 0h0.002c-0.418 0.010-0.791 0.192-1.053 0.477l-0.001 0.001c-0.361 0.38-1.382 1.299-1.382 3.174s1.416 3.684 1.613 3.938c0.198 0.252 2.786 4.098 6.752 5.749 0.941 0.39 1.677 0.625 2.253 0.802 0.947 0.29 1.807 0.247 2.488 0.151 0.759-0.111 2.338-0.922 2.665-1.809 0.331-0.888 0.331-1.651 0.232-1.811-0.094-0.158-0.36-0.254-0.755-0.444z"></path>
</symbol>
</defs>
</svg>
