<svg xmlns="http://www.w3.org/2000/svg" width="18" height="17" fill="none"><path fill="#000" fill-rule="evenodd" d="M8.833.063c-2.291 0-2.578.01-3.478.05-.899.041-1.512.184-2.049.393a4.132 4.132 0 0 0-1.494.973c-.43.421-.762.931-.974 1.494-.207.537-.35 1.15-.392 2.05-.04.899-.05 1.185-.05 3.477s.01 2.579.05 3.479c.041.898.184 1.512.393 2.048.212.563.543 1.073.973 1.495a4.14 4.14 0 0 0 1.494.973c.537.208 1.15.35 2.049.392.9.04 1.187.05 3.478.05 2.292 0 2.579-.01 3.479-.05.898-.041 1.512-.184 2.048-.393a4.13 4.13 0 0 0 1.495-.973c.429-.421.761-.931.973-1.494.208-.536.351-1.15.392-2.048.041-.9.05-1.187.05-3.479s-.009-2.579-.05-3.479c-.04-.898-.184-1.511-.392-2.048a4.136 4.136 0 0 0-.974-1.495A4.139 4.139 0 0 0 14.36.505c-.536-.207-1.15-.35-2.049-.392-.9-.04-1.186-.05-3.478-.05Zm0 1.52c2.253 0 2.52.008 3.41.049.822.038 1.27.174 1.567.29.393.153.675.337.97.631.295.296.478.577.63.97.116.298.254.745.291 1.567.04.89.05 1.157.05 3.41s-.01 2.52-.05 3.41c-.037.822-.174 1.269-.29 1.566-.136.367-.35.698-.631.97-.272.28-.604.496-.97.631-.298.116-.745.253-1.567.291-.89.04-1.156.05-3.41.05-2.253 0-2.52-.01-3.41-.05-.822-.038-1.269-.174-1.566-.29a2.614 2.614 0 0 1-.97-.631 2.615 2.615 0 0 1-.631-.97c-.116-.298-.253-.745-.29-1.567-.041-.89-.05-1.157-.05-3.41s.009-2.52.05-3.41c.037-.822.173-1.269.29-1.566.152-.394.336-.675.63-.97.273-.28.604-.496.97-.631.298-.116.745-.253 1.567-.291.89-.04 1.157-.05 3.41-.05Z" clip-rule="evenodd"/><path fill="#000" fill-rule="evenodd" d="M8.833 11.315a2.815 2.815 0 1 1 0-5.63 2.815 2.815 0 0 1 0 5.63Zm0-7.152a4.337 4.337 0 1 0 0 8.674 4.337 4.337 0 0 0 0-8.674Zm5.599-.079a1.025 1.025 0 1 1-2.05 0 1.025 1.025 0 0 1 2.05 0" clip-rule="evenodd"/></svg>