<svg xmlns="http://www.w3.org/2000/svg" width="377" height="96" fill="none"><path fill="#fff" d="M129.932 5.154c1.571 0 2.901.049 3.991.145 1.122.064 2.147.177 3.077.337.929.16 1.891.385 2.884.674l-.577 5.394a118.573 118.573 0 0 0-2.932-.144 76.968 76.968 0 0 0-2.837-.048c-.994-.032-2.195-.048-3.606-.048-1.634 0-2.916.32-3.846.963-.897.642-1.538 1.766-1.923 3.371-.385 1.573-.577 3.757-.577 6.55 0 2.793.192 4.993.577 6.598.385 1.573 1.026 2.681 1.923 3.323.93.642 2.212.963 3.846.963 2.212 0 4.071-.032 5.577-.096a68.043 68.043 0 0 0 4.471-.337l.625 5.394a26.2 26.2 0 0 1-4.711 1.011c-1.603.225-3.59.337-5.962.337-3.429 0-6.186-.545-8.269-1.637-2.051-1.124-3.542-2.938-4.471-5.442-.898-2.505-1.347-5.876-1.347-10.114s.449-7.61 1.347-10.114c.929-2.504 2.42-4.302 4.471-5.394 2.083-1.124 4.84-1.686 8.269-1.686ZM150.36 15.172l.865 4.72.674.626v18.446h-7.116V15.172h5.577Zm11.587-.626-.673 6.598h-1.972c-1.121 0-2.291.16-3.509.482-1.218.32-2.757.802-4.616 1.444l-.48-3.997c1.666-1.477 3.349-2.6 5.048-3.371 1.698-.77 3.349-1.156 4.952-1.156h1.25ZM176.175 14.546c4.007 0 6.875.69 8.606 2.07 1.763 1.35 2.644 3.372 2.644 6.07.032 2.182-.512 3.82-1.634 4.912-1.122 1.06-3.061 1.589-5.818 1.589h-13.269v-3.998h11.298c1.09 0 1.779-.224 2.067-.674.321-.481.481-1.14.481-1.974-.032-1.124-.368-1.895-1.009-2.312-.609-.45-1.651-.674-3.125-.674-1.315 0-2.34.176-3.077.53-.738.353-1.25 1.027-1.539 2.022-.288.995-.433 2.44-.433 4.335 0 1.99.177 3.532.529 4.623.353 1.06.946 1.798 1.779 2.216.866.417 2.051.626 3.558.626 1.09 0 2.436-.032 4.038-.097 1.635-.096 3.27-.24 4.904-.433l.673 4.383c-.929.45-1.987.802-3.173 1.06a27.059 27.059 0 0 1-3.654.529c-1.25.128-2.452.193-3.605.193-3.013 0-5.449-.434-7.308-1.3-1.827-.9-3.157-2.264-3.991-4.094-.801-1.83-1.202-4.175-1.202-7.032 0-3.114.417-5.587 1.25-7.417.834-1.83 2.148-3.146 3.943-3.95 1.795-.802 4.15-1.203 7.067-1.203ZM204.611 14.546c1.987 0 3.67.273 5.048.819 1.378.513 2.42 1.412 3.125 2.697.737 1.252 1.106 2.986 1.106 5.201v15.7h-5.673l-1.01-5.153-.481-.722v-9.873c0-1.124-.272-1.943-.817-2.456-.513-.514-1.506-.77-2.981-.77-1.218 0-2.74.047-4.567.144-1.827.064-3.702.16-5.625.289l-.673-4.72a47.298 47.298 0 0 1 3.99-.578 107.2 107.2 0 0 1 4.519-.385 48.052 48.052 0 0 1 4.039-.193Zm6.346 9.777-.048 3.997-10.577.048c-.865 0-1.49.209-1.875.626-.353.418-.529.98-.529 1.686v1.156c0 .802.224 1.428.673 1.878.449.417 1.17.626 2.164.626.833 0 1.73-.177 2.692-.53.994-.353 1.971-.85 2.933-1.493a12.283 12.283 0 0 0 2.548-2.263v3.082c-.289.482-.721 1.092-1.298 1.83-.545.707-1.25 1.413-2.116 2.12-.865.674-1.875 1.252-3.029 1.733-1.153.482-2.468.722-3.942.722-1.442 0-2.74-.256-3.894-.77s-2.068-1.268-2.741-2.264c-.673-.995-1.009-2.231-1.009-3.708v-2.456c0-1.895.641-3.372 1.923-4.431 1.282-1.06 3.045-1.59 5.288-1.59h12.837ZM228.761 8.574v22.78c0 .867.192 1.493.577 1.878.417.354 1.09.53 2.019.53h3.077l.769 4.816c-.577.193-1.282.353-2.115.482-.833.16-1.667.273-2.5.337-.833.096-1.539.145-2.116.145-2.147 0-3.83-.578-5.048-1.734-1.186-1.156-1.779-2.778-1.779-4.864l-.048-24.37h7.164Zm6.635 6.598v4.672h-17.933v-4.431l4.615-.241h13.318ZM246.461 15.172v23.792h-7.067V15.172h7.067Zm-1.971-10.5c1.41 0 2.115.723 2.115 2.168v2.553c0 1.444-.705 2.167-2.115 2.167h-3.077c-1.41 0-2.116-.723-2.116-2.167V6.84c0-1.445.706-2.167 2.116-2.167h3.077ZM276.431 15.172l-7.837 22.106a2.766 2.766 0 0 1-.913 1.252c-.385.29-.849.434-1.394.434h-6.202a2.472 2.472 0 0 1-1.443-.434 2.935 2.935 0 0 1-.865-1.252l-7.837-22.106h7.549l4.375 14.882c.192.706.368 1.429.528 2.167.161.739.321 1.445.481 2.12h.625c.193-.707.369-1.414.529-2.12.192-.738.385-1.46.577-2.167l4.279-14.882h7.548ZM290.548 14.546c4.006 0 6.875.69 8.606 2.07 1.762 1.35 2.644 3.372 2.644 6.07.032 2.182-.513 3.82-1.635 4.912-1.122 1.06-3.061 1.589-5.817 1.589h-13.27v-3.998h11.299c1.089 0 1.778-.224 2.067-.674.32-.481.481-1.14.481-1.974-.032-1.124-.369-1.895-1.01-2.312-.609-.45-1.651-.674-3.125-.674-1.314 0-2.34.176-3.077.53-.737.353-1.25 1.027-1.538 2.022-.289.995-.433 2.44-.433 4.335 0 1.99.176 3.532.529 4.623.352 1.06.945 1.798 1.779 2.216.865.417 2.051.626 3.557.626 1.09 0 2.436-.032 4.039-.097a84.24 84.24 0 0 0 4.904-.433l.673 4.383c-.93.45-1.987.802-3.173 1.06a27.059 27.059 0 0 1-3.654.529c-1.25.128-2.452.193-3.606.193-3.013 0-5.449-.434-7.308-1.3-1.827-.9-3.157-2.264-3.99-4.094-.802-1.83-1.202-4.175-1.202-7.032 0-3.114.416-5.587 1.25-7.417.833-1.83 2.147-3.146 3.942-3.95 1.795-.802 4.151-1.203 7.068-1.203ZM127.913 51.793c1.635 0 3.413.096 5.337.29 1.923.16 3.798.513 5.625 1.059l-.481 4.864c-1.41-.032-3.061-.064-4.952-.096a328.66 328.66 0 0 0-5.577-.049c-.898 0-1.667.033-2.308.097-.609.032-1.106.16-1.49.385a1.645 1.645 0 0 0-.818.915c-.16.417-.24.995-.24 1.734 0 1.124.256 1.942.769 2.456.545.514 1.459.98 2.741 1.397l6.394 2.07c2.66.9 4.503 2.12 5.529 3.661 1.026 1.541 1.538 3.564 1.538 6.068 0 1.895-.224 3.468-.673 4.72-.448 1.252-1.153 2.231-2.115 2.938-.962.706-2.228 1.204-3.798 1.493-1.571.321-3.494.481-5.769.481-1.09 0-2.645-.08-4.664-.24-2.019-.129-4.327-.482-6.923-1.06l.481-5.201c1.891.032 3.525.08 4.903.144 1.411.032 2.613.064 3.606.097h2.597c1.282 0 2.275-.08 2.98-.241.738-.16 1.25-.482 1.539-.964.288-.481.433-1.171.433-2.07 0-.771-.113-1.381-.337-1.83a2.12 2.12 0 0 0-1.01-1.108c-.448-.29-1.073-.546-1.875-.77l-6.731-2.313c-2.532-.93-4.327-2.15-5.384-3.66-1.058-1.509-1.587-3.5-1.587-5.972 0-1.926.225-3.483.673-4.671.481-1.22 1.202-2.168 2.164-2.842.993-.674 2.259-1.14 3.798-1.397 1.57-.256 3.445-.385 5.625-.385ZM151.949 61.859V85.65h-7.068V61.86h7.068Zm-1.971-10.5c1.41 0 2.115.723 2.115 2.168v2.553c0 1.444-.705 2.167-2.115 2.167h-3.077c-1.411 0-2.116-.723-2.116-2.167v-2.553c0-1.445.705-2.167 2.116-2.167h3.077ZM168.553 61.233c2.757 0 4.936.257 6.539.77 1.635.514 2.804 1.317 3.51 2.408.737 1.092 1.105 2.553 1.105 4.383 0 1.766-.352 3.21-1.057 4.335-.705 1.091-1.891 1.894-3.558 2.408-1.635.513-3.83.77-6.587.77-2.756 0-4.968-.257-6.634-.77-1.635-.514-2.821-1.317-3.558-2.409-.705-1.091-1.058-2.536-1.058-4.334 0-1.798.353-3.243 1.058-4.334.737-1.124 1.939-1.943 3.606-2.457 1.666-.513 3.878-.77 6.634-.77Zm-.048 4.382c-1.763 0-2.981.241-3.654.723-.673.45-1.009 1.268-1.009 2.456s.336 2.023 1.009 2.504c.673.482 1.891.723 3.654.723s2.965-.241 3.606-.723c.641-.481.962-1.316.962-2.504s-.321-2.007-.962-2.456c-.641-.482-1.843-.723-3.606-.723Zm13.943-3.756-.385 3.034-6.346.819-1.731-3.853h8.462Zm-21.106 13.003 3.557.626c-.448.257-.769.659-.961 1.204-.16.546-.112 1.06.144 1.542.257.481.817.77 1.683.867l8.75 1.01c2.5.258 4.263.964 5.289 2.12 1.025 1.124 1.538 2.777 1.538 4.96 0 2.055-.417 3.629-1.25 4.72-.833 1.124-2.164 1.895-3.99 2.312-1.827.418-4.263.626-7.308.626-2.5 0-4.568-.128-6.202-.385-1.603-.225-2.885-.61-3.847-1.156-.929-.546-1.586-1.268-1.971-2.167-.352-.867-.529-1.959-.529-3.275 0-.995.177-1.846.529-2.553.353-.738.946-1.396 1.779-1.974.866-.578 2.067-1.108 3.606-1.59l3.51-1.252 2.548 1.011-1.923 1.253a43.523 43.523 0 0 0-1.972 1.493c-.48.385-.833.77-1.057 1.156-.193.385-.289.899-.289 1.54 0 .74.161 1.301.481 1.686.321.418.898.69 1.731.82.865.16 2.035.24 3.51.24 1.538 0 2.74-.08 3.605-.24.866-.13 1.459-.386 1.779-.772.353-.385.529-.93.529-1.637 0-.61-.128-1.06-.384-1.348-.225-.29-.626-.498-1.202-.626-.545-.161-1.315-.306-2.308-.434l-7.452-.819c-1.25-.128-2.228-.465-2.933-1.011-.705-.546-1.202-1.204-1.49-1.975a5.14 5.14 0 0 1-.193-2.408 5.156 5.156 0 0 1 .866-2.167 4.113 4.113 0 0 1 1.827-1.397ZM202.451 61.233c4.487 0 6.731 2.2 6.731 6.598v17.82h-7.164V70.045c0-1.06-.192-1.782-.577-2.167-.352-.418-.993-.626-1.923-.626-1.026 0-2.083.192-3.173.578-1.09.385-2.436 1.011-4.039 1.878l-.625-3.708c1.763-1.541 3.558-2.713 5.385-3.516 1.827-.835 3.622-1.252 5.385-1.252Zm-9.423-9.295.048 8.235c0 1.252-.081 2.44-.241 3.564-.128 1.124-.288 2.071-.481 2.842l.674.626V85.65h-7.116V51.938h7.116ZM224.066 55.26v22.78c0 .868.192 1.494.577 1.88.416.352 1.09.529 2.019.529h3.077l.769 4.816c-.577.193-1.282.353-2.115.482-.834.16-1.667.273-2.5.337-.834.096-1.539.144-2.116.144-2.147 0-3.83-.578-5.048-1.733-1.186-1.156-1.779-2.778-1.779-4.865l-.048-24.37h7.164Zm6.635 6.599v4.671h-17.933V62.1l4.615-.241h13.318ZM259.017 51.745c1.443 0 2.757.048 3.943.145 1.186.096 2.307.224 3.365.385 1.09.16 2.148.401 3.173.722l-.577 5.346a122.02 122.02 0 0 0-3.269-.144 104.59 104.59 0 0 0-3.173-.049 109.551 109.551 0 0 0-3.318-.048c-1.378 0-2.532.145-3.461.434-.898.289-1.619.834-2.164 1.637-.545.77-.945 1.895-1.202 3.371-.224 1.445-.336 3.308-.336 5.587 0 2.761.176 4.929.529 6.502.352 1.573.945 2.697 1.779 3.371.833.642 1.955.963 3.365.963.962 0 1.843-.096 2.644-.289a11.19 11.19 0 0 0 2.212-.77 87.24 87.24 0 0 0 1.875-1.011l.769 3.467c-.481.674-1.202 1.397-2.163 2.167-.93.77-2.068 1.43-3.414 1.975-1.346.546-2.884.819-4.615.819-2.5 0-4.552-.594-6.154-1.782-1.571-1.188-2.725-3.05-3.462-5.587-.737-2.569-1.106-5.892-1.106-9.97 0-4.334.465-7.753 1.395-10.258.961-2.504 2.516-4.286 4.663-5.346 2.18-1.091 5.08-1.637 8.702-1.637Zm11.635 14.737V85.65h-5.433l-1.009-5.056-.673-1.349V66.482h7.115ZM281.635 61.859l.865 4.72.673.626V85.65h-7.115V61.86h5.577Zm11.587-.626-.674 6.598h-1.971c-1.122 0-2.291.16-3.509.481-1.218.322-2.757.803-4.616 1.445l-.481-3.997c1.667-1.477 3.35-2.6 5.049-3.371 1.698-.771 3.349-1.156 4.952-1.156h1.25ZM307.498 61.233c2.981 0 5.369.417 7.164 1.252 1.794.803 3.077 2.119 3.846 3.95.801 1.83 1.202 4.285 1.202 7.368 0 3.018-.401 5.442-1.202 7.272-.769 1.83-2.052 3.147-3.846 3.95-1.795.802-4.183 1.203-7.164 1.203-2.949 0-5.337-.401-7.164-1.204-1.794-.802-3.093-2.119-3.894-3.949-.801-1.83-1.202-4.254-1.202-7.272 0-3.083.401-5.539 1.202-7.369.801-1.83 2.1-3.146 3.894-3.95 1.827-.834 4.215-1.251 7.164-1.251Zm0 5.201c-1.218 0-2.18.209-2.885.626-.705.418-1.202 1.156-1.49 2.216-.289 1.06-.433 2.568-.433 4.527 0 1.926.144 3.42.433 4.479.288 1.06.785 1.798 1.49 2.215.705.385 1.667.578 2.885.578 1.218 0 2.18-.193 2.885-.578.705-.417 1.202-1.156 1.49-2.215.289-1.06.433-2.553.433-4.48 0-1.958-.144-3.467-.433-4.526-.288-1.06-.785-1.798-1.49-2.216-.705-.417-1.667-.626-2.885-.626ZM331.529 61.859V77.51c0 .996.209 1.702.625 2.12.449.417 1.154.625 2.116.625.993 0 1.971-.176 2.933-.53.993-.385 2.211-.979 3.653-1.781l.577 3.9c-1.73 1.51-3.429 2.633-5.096 3.372a12.574 12.574 0 0 1-5.144 1.108c-4.519 0-6.779-2.216-6.779-6.647v-17.82h7.115Zm15.722 0V85.65h-5.625l-.818-4.671-.673-.674V61.859h7.116ZM368.683 61.28c2.98 0 5.112 1.093 6.394 3.276S377 69.87 377 73.947c0 3.179-.337 5.667-1.01 7.465-.641 1.798-1.634 3.066-2.98 3.805-1.315.706-2.965 1.06-4.952 1.06-1.699 0-3.318-.241-4.856-.723a10.377 10.377 0 0 1-4.087-2.408l.481-3.179c1.058.322 2.019.61 2.885.867.897.225 1.907.337 3.028.337 1.026 0 1.843-.176 2.452-.53.609-.353 1.042-1.043 1.298-2.07.289-1.06.433-2.585.433-4.576 0-1.958-.128-3.451-.384-4.479-.257-1.06-.674-1.782-1.25-2.167-.577-.417-1.331-.626-2.26-.626-1.026 0-1.971.209-2.837.626-.865.385-1.843.947-2.932 1.686l-.914-3.275c.641-.867 1.458-1.638 2.452-2.312a13.53 13.53 0 0 1 3.365-1.59 12.362 12.362 0 0 1 3.751-.577Zm-9.856.579.673 4.334.673.723v15.46l-.241.577c.097.964.161 1.959.193 2.986.064 1.06.08 2.103.048 3.13v5.732h-7.116V61.859h5.77ZM28.719 63.518c.466 7.84.466 17.501 0 28.888-9.32-4.294-16.498-10.22-21.485-17.827C1.69 65.99-.643 55.91.151 44.244c.606-9.054 3.682-17.173 9.274-24.406C14.365 13.445 20.611 8.404 28.3 4.67c.046.048.093.14.186.186.14.048.186.093.233.093.513 9.52.513 19.041 0 28.607-4.008.747-6.943.98-8.809.514-.513-.84-.746-2.52-.513-4.993.188-2.566.093-4.154-.233-4.901-1.538.514-3.216 2.38-5.08 5.693C9.798 37.384 8.4 46.298 10.03 56.657c1.024 7.14 4.007 12.786 8.854 17.034.559-.747.792-2.24.606-4.527-.14-2.94-.186-4.807-.093-5.648a28.364 28.364 0 0 1 9.32 0l.002.002ZM62.739 43.637a988.71 988.71 0 0 1 0 49.936c-3.915 1.633-8.622 2.38-14.169 2.427-5.64 0-10.299-.747-13.98-2.427-.654-6.581-.7-16.802-.234-30.661 1.724-.793 4.754-.888 9.087-.281.186.42.186 4.808 0 13.16-.14 6.347-.047 9.847.28 10.454.56.933 1.912 1.447 4.148 1.4 1.864 0 3.496-.281 4.987-.888.792-10.22.932-21.421.42-33.46-1.818-.56-4.846-.653-9.181-.56-4.661.093-7.83 0-9.508-.233-.466-25.715-.558-42.562-.233-50.495C38.086.609 42.84-.045 48.525.002 53.977.05 58.684.75 62.739 2.01c.42 10.454.42 20.86 0 31.175-2.936.56-5.919.56-8.902 0-.233-2.847-.326-6.72-.326-11.62.048-6.627.093-10.594.093-11.946-.886-.748-2.424-1.214-4.568-1.26-2.144-.045-3.822.14-5.08.7-.28 3.687-.373 9.24-.325 16.52.047 9.568.093 15.122.093 16.754 1.024.467 5.267.748 12.676 1.026l6.339.281v-.002ZM78.911 86.106c-4.333 3.36-7.83 5.412-10.672 6.02V6.068c0-.374.233-.653.513-.793C81.522 10.83 89.957 20.35 94.06 33.883c-4.008.42-6.943.56-8.809.28-.699-.606-1.678-2.38-3.076-5.226-1.072-2.287-2.33-3.78-3.774-4.434-.886 11.808-1.025 28.188-.559 49.188 1.771-.793 3.775-3.594 6.106-8.4 2.004-4.153 3.123-7.793 3.216-10.827-.047-.56-.653-.84-1.77-.84-1.446 0-2.238-.047-2.425-.186a25.722 25.722 0 0 1 0-8.866 65.875 65.875 0 0 1 13.562 0c1.165 17.313-4.706 31.127-17.615 41.534h-.004Z"/></svg>