<svg xmlns="http://www.w3.org/2000/svg" width="18" height="17" fill="none"><path fill="#000" d="M9.202.335C4.571.335.802 3.965.8 8.427a7.845 7.845 0 0 0 1.121 4.045L.73 16.665l4.455-1.125a8.651 8.651 0 0 0 4.015.986h.003c4.631 0 8.4-3.631 8.402-8.093.001-2.161-.872-4.195-2.459-5.724C13.56 1.179 11.45.335 9.202.335Zm0 14.824h-.003a7.171 7.171 0 0 1-3.554-.938l-.256-.146-2.643.668.706-2.483-.166-.254a6.523 6.523 0 0 1-1.068-3.58c.002-3.708 3.135-6.724 6.987-6.724 1.865 0 3.618.7 4.937 1.972 1.319 1.27 2.045 2.961 2.044 4.759-.002 3.708-3.135 6.726-6.985 6.726h.001Zm3.83-5.038c-.21-.101-1.242-.59-1.434-.659-.192-.066-.332-.101-.472.101-.14.203-.542.658-.664.793-.123.135-.246.151-.456.05-.21-.1-.887-.314-1.688-1.003A6.106 6.106 0 0 1 7.15 8.002c-.123-.202-.013-.311.092-.412.094-.09.21-.236.314-.354.105-.118.14-.202.21-.337.07-.135.035-.254-.017-.354-.053-.102-.472-1.097-.648-1.502-.17-.394-.343-.34-.472-.347a9.377 9.377 0 0 0-.403-.008.786.786 0 0 0-.56.254c-.192.202-.734.69-.734 1.686s.752 1.957.857 2.092c.105.134 1.48 2.177 3.587 3.054.5.207.891.332 1.197.426.503.154.96.131 1.322.08.403-.059 1.242-.49 1.416-.961.176-.472.176-.877.123-.962-.05-.084-.191-.135-.401-.236Z"/></svg>